<?xml version="1.0" encoding="UTF-8"?>
<svg width="465" height="390" viewBox="-0.7 -0.596 512 438" xmlns="http://www.w3.org/2000/svg" xmlns:xlink="http://www.w3.org/1999/xlink">
 <defs></defs>
 <g transform="matrix(-2.3481 0 0 2.0062 847.21 -201.94)">
  <path d="m274.57 266.94-66.672-39.024v39.024l-66.672-39.024v90.648h221.76l-2.736-164.45h-16.776l-1.872 112.82-67.032-39.024v39.024z"/>
  <path d="m225.8 100.87c7.776 9.504 21.348 14.569 33.66 14.569 7.2 0 17.847-3.7814 24.039-7.4534l5.5528 11.053c-23.112 16.056-54.648 11.088-71.784-11.376l8.5325-6.7934z"/>
  <path d="m345.54 145.53 13.322 0.78305c-4.7568-17.667-17.539-32.706-34.244-39.839-12.377-5.2849-25.67-5.6721-37.329-1.2229l6.0143 11.919c20.441-7.2912 44.571 5.7713 52.237 28.36z"/>
 </g>
</svg>
