<?xml version='1.0' encoding='utf-8'?>
<svg xmlns="http://www.w3.org/2000/svg" version="1.1" id="Layer_1" x="0px" y="0px" viewBox="0 0 1654.313 1654.313" enable-background="new 0 0 1654.313 1654.313"> <g> <linearGradient id="path7_8_" gradientUnits="userSpaceOnUse" x1="653.2025" y1="383.6682" x2="1001.1108" y2="383.6682"> <stop offset="0" style="stop-color:#FFF33B"/> <stop offset="0.0645" style="stop-color:#EBE054"/> <stop offset="0.1334" style="stop-color:#DDD267"/> <stop offset="0.2044" style="stop-color:#D4CA72"/> <stop offset="0.28" style="stop-color:#D1C776"/> <stop offset="0.67" style="stop-color:#9FA391"/> <stop offset="0.89" style="stop-color:#6A7FA4"/> <stop offset="1" style="stop-color:#3367B1"/> </linearGradient> <path id="path7" fill="url(#path7_8_)" d="M1001.111,301.378v-80.49c-7.582-37.666-15.059-75.367-54.526-109.917 c0,0-3.549-78.673,0-82.221c3.566-3.583-228.471,0-228.471,0v81.339c-60.411,47.065-59.442,98.354-64.911,137.595v3.496v340.136 c0,17.275,13.45,31.14,30.292,31.14c16.808,0,30.292-13.865,30.292-31.14V407.833h10.386v259.646 c0,17.24,13.484,31.14,30.292,31.14s30.292-13.9,30.292-31.14V407.833h9.503v301.172c-0.017,17.275,13.502,31.175,30.275,31.175 c16.843,0,30.309-13.899,30.309-31.175V407.833h11.252v259.646c0,17.24,13.467,31.14,30.292,31.14 c16.808,0,30.292-13.9,30.292-31.14V407.833h8.655v93.438c13.692,38.445,37.891,47.325,65.777,45.871 C1001.111,547.141,1001.111,301.378,1001.111,301.378z"/> <linearGradient id="path7_9_" gradientUnits="userSpaceOnUse" x1="185.4924" y1="487.2179" x2="793.9511" y2="487.2179"> <stop offset="0" style="stop-color:#66C7FF"/> <stop offset="0.0296" style="stop-color:#63BEF9"/> <stop offset="0.1097" style="stop-color:#5EABEC"/> <stop offset="0.1921" style="stop-color:#5AA0E4"/> <stop offset="0.28" style="stop-color:#599CE1"/> <stop offset="0.67" style="stop-color:#7524B3"/> <stop offset="0.89" style="stop-color:#7E2161"/> <stop offset="1" style="stop-color:#923B2E"/> </linearGradient> <path id="path7_1_" fill="url(#path7_9_)" d="M578.379,332.371l-56.915-56.915c-31.995-21.273-63.941-42.644-116.279-39.167 c0,0-58.139-53.121-58.139-58.139c-0.012-5.055-161.554,161.554-161.554,161.554l57.515,57.515 c-9.437,75.997,27.515,111.578,51.395,143.194l2.472,2.472l240.513,240.513c12.215,12.215,31.53,12.509,43.439,0.6 c11.885-11.885,11.615-31.224-0.6-43.439L450.485,610.815l7.344-7.344l183.597,183.597c12.191,12.191,31.554,12.485,43.439,0.6 c11.885-11.885,11.591-31.248-0.6-43.439L500.668,560.632l6.72-6.72l212.961,212.961c12.203,12.228,31.591,12.497,43.451,0.636 c11.909-11.909,11.603-31.26-0.612-43.476L550.227,511.072l7.956-7.956L741.78,686.714c12.191,12.191,31.542,12.497,43.439,0.6 c11.885-11.885,11.591-31.248-0.6-43.439L601.022,460.277l6.12-6.12l66.071,66.071c36.866,17.503,60.257,6.671,78.947-14.076 C752.16,506.152,578.379,332.371,578.379,332.371z"/> <linearGradient id="path7_10_" gradientUnits="userSpaceOnUse" x1="27.1567" y1="827.1567" x2="740.1796" y2="827.1567"> <stop offset="0" style="stop-color:#9300AB"/> <stop offset="1" style="stop-color:#94EC2F"/> </linearGradient> <path id="path7_2_" fill="url(#path7_10_)" d="M301.378,653.203h-80.49c-37.666,7.582-75.367,15.06-109.917,54.526 c0,0-78.673,3.549-82.221,0c-3.583-3.566,0,228.471,0,228.471h81.339c47.065,60.411,98.354,59.442,137.595,64.911h3.496h340.136 c17.275,0,31.14-13.45,31.14-30.292c0-16.808-13.865-30.292-31.14-30.292H407.833v-10.386h259.646 c17.24,0,31.14-13.484,31.14-30.292s-13.9-30.292-31.14-30.292H407.833v-9.503h301.172c17.275,0.017,31.175-13.502,31.175-30.275 c0-16.842-13.899-30.309-31.175-30.309H407.833v-11.251h259.646c17.24,0,31.14-13.467,31.14-30.292 c0-16.808-13.9-30.292-31.14-30.292H407.833v-8.655h93.438c38.445-13.692,47.325-37.891,45.871-65.777 C547.141,653.203,301.378,653.203,301.378,653.203z"/> <linearGradient id="path7_11_" gradientUnits="userSpaceOnUse" x1="178.0359" y1="1164.5917" x2="796.3998" y2="1164.5917"> <stop offset="0" style="stop-color:#FFF33B"/> <stop offset="0.0401" style="stop-color:#FEE72E"/> <stop offset="0.1171" style="stop-color:#FED51B"/> <stop offset="0.1964" style="stop-color:#FDCA10"/> <stop offset="0.2809" style="stop-color:#FDC70C"/> <stop offset="0.6685" style="stop-color:#F3903F"/> <stop offset="0.8876" style="stop-color:#ED683C"/> <stop offset="1" style="stop-color:#E93E3A"/> </linearGradient> <path id="path7_3_" fill="url(#path7_11_)" d="M332.371,1075.934l-56.915,56.915c-21.273,31.995-42.644,63.941-39.167,116.278 c0,0-53.121,58.139-58.139,58.139c-5.055,0.012,161.554,161.554,161.554,161.554l57.515-57.515 c75.997,9.437,111.578-27.515,143.194-51.395l2.472-2.472l240.513-240.513c12.215-12.215,12.509-31.53,0.6-43.439 c-11.885-11.885-31.224-11.615-43.439,0.6l-129.742,129.742l-7.344-7.344l183.597-183.597c12.191-12.191,12.485-31.554,0.6-43.439 c-11.885-11.885-31.248-11.591-43.439,0.6l-183.597,183.597l-6.72-6.72l212.961-212.961c12.228-12.203,12.497-31.591,0.636-43.451 c-11.909-11.909-31.26-11.603-43.476,0.612l-212.961,212.961l-7.956-7.956l183.597-183.597c12.191-12.191,12.497-31.542,0.6-43.439 c-11.885-11.885-31.248-11.591-43.439,0.6l-183.597,183.597l-6.12-6.12l66.071-66.071c17.503-36.866,6.671-60.257-14.076-78.947 C506.152,902.153,332.371,1075.934,332.371,1075.934z"/> <linearGradient id="path7_12_" gradientUnits="userSpaceOnUse" x1="653.2025" y1="1270.6453" x2="1001.1108" y2="1270.6453"> <stop offset="0.05" style="stop-color:#007DFF"/> <stop offset="0.5337" style="stop-color:#A80E38"/> <stop offset="1" style="stop-color:#A9913E"/> </linearGradient> <path id="path7_4_" fill="url(#path7_12_)" d="M653.203,1352.936v80.49c7.582,37.666,15.06,75.366,54.526,109.917 c0,0,3.549,78.673,0,82.221c-3.566,3.583,228.471,0,228.471,0v-81.339c60.411-47.065,59.442-98.354,64.911-137.595v-3.496v-340.136 c0-17.275-13.45-31.14-30.292-31.14c-16.808,0-30.292,13.865-30.292,31.14v183.483h-10.386V986.835 c0-17.24-13.484-31.14-30.292-31.14s-30.292,13.9-30.292,31.14v259.646h-9.503V945.308c0.017-17.275-13.502-31.175-30.275-31.175 c-16.842,0-30.309,13.899-30.309,31.175v301.172h-11.251V986.835c0-17.24-13.467-31.14-30.292-31.14 c-16.808,0-30.292,13.9-30.292,31.14v259.646h-8.655v-93.438c-13.692-38.445-37.891-47.325-65.777-45.871 C653.203,1107.172,653.203,1352.936,653.203,1352.936z"/> <linearGradient id="path7_13_" gradientUnits="userSpaceOnUse" x1="860.3623" y1="1167.0955" x2="1468.821" y2="1167.0955"> <stop offset="0.0056" style="stop-color:#AD00A1"/> <stop offset="0.5" style="stop-color:#DAD521"/> <stop offset="1" style="stop-color:#63F222"/> </linearGradient> <path id="path7_5_" fill="url(#path7_13_)" d="M1075.934,1321.943l56.915,56.915c31.995,21.273,63.941,42.644,116.278,39.167 c0,0,58.139,53.121,58.139,58.139c0.012,5.055,161.554-161.554,161.554-161.554l-57.515-57.515 c9.437-75.997-27.515-111.578-51.395-143.194l-2.472-2.472l-240.513-240.513c-12.215-12.215-31.53-12.509-43.439-0.6 c-11.885,11.885-11.615,31.224,0.6,43.439l129.742,129.742l-7.344,7.344l-183.597-183.597c-12.191-12.191-31.554-12.485-43.439-0.6 c-11.885,11.885-11.591,31.248,0.6,43.439l183.597,183.597l-6.72,6.72L933.965,887.44c-12.203-12.228-31.591-12.497-43.451-0.636 c-11.909,11.909-11.603,31.26,0.612,43.476l212.961,212.961l-7.956,7.956L912.533,967.6c-12.191-12.191-31.542-12.497-43.439-0.6 c-11.885,11.885-11.591,31.248,0.6,43.439l183.597,183.597l-6.12,6.12l-66.071-66.071c-36.866-17.503-60.257-6.671-78.947,14.076 C902.153,1148.162,1075.934,1321.943,1075.934,1321.943z"/> <linearGradient id="path7_14_" gradientUnits="userSpaceOnUse" x1="914.1338" y1="827.1567" x2="1627.1567" y2="827.1567"> <stop offset="0" style="stop-color:#4052D2"/> <stop offset="0.5169" style="stop-color:#00C1FF"/> <stop offset="0.95" style="stop-color:#7D00AA"/> </linearGradient> <path id="path7_6_" fill="url(#path7_14_)" d="M1352.936,1001.111h80.49c37.666-7.582,75.366-15.059,109.917-54.526 c0,0,78.673-3.549,82.221,0c3.583,3.566,0-228.471,0-228.471h-81.339c-47.065-60.411-98.354-59.442-137.595-64.911h-3.496h-340.136 c-17.275,0-31.14,13.45-31.14,30.292c0,16.808,13.865,30.292,31.14,30.292h183.483v10.386H986.835 c-17.24,0-31.14,13.484-31.14,30.292s13.9,30.292,31.14,30.292h259.646v9.503H945.308c-17.275-0.017-31.175,13.502-31.175,30.275 c0,16.843,13.899,30.309,31.175,30.309h301.172v11.252H986.835c-17.24,0-31.14,13.467-31.14,30.292 c0,16.808,13.9,30.292,31.14,30.292h259.646v8.655h-93.438c-38.445,13.692-47.325,37.891-45.871,65.777 C1107.172,1001.111,1352.936,1001.111,1352.936,1001.111z"/> <linearGradient id="path7_15_" gradientUnits="userSpaceOnUse" x1="857.9135" y1="489.7217" x2="1476.2775" y2="489.7217"> <stop offset="0" style="stop-color:#C80054"/> <stop offset="0.4944" style="stop-color:#947235"/> <stop offset="1" style="stop-color:#1FF246"/> </linearGradient> <path id="path7_7_" fill="url(#path7_15_)" d="M1321.943,578.379l56.915-56.915c21.273-31.995,42.644-63.941,39.167-116.279 c0,0,53.121-58.139,58.139-58.139c5.055-0.012-161.554-161.554-161.554-161.554l-57.515,57.515 c-75.997-9.437-111.578,27.515-143.194,51.395l-2.472,2.472L870.917,537.388c-12.215,12.215-12.509,31.53-0.6,43.439 c11.885,11.885,31.224,11.615,43.439-0.6l129.742-129.742l7.344,7.344L867.245,641.426c-12.191,12.191-12.485,31.554-0.6,43.439 c11.885,11.885,31.248,11.591,43.439-0.6l183.597-183.597l6.72,6.72L887.44,720.349c-12.228,12.203-12.497,31.591-0.636,43.451 c11.909,11.909,31.26,11.603,43.476-0.612l212.961-212.961l7.956,7.956L967.6,741.78c-12.191,12.191-12.497,31.542-0.6,43.439 c11.885,11.885,31.248,11.591,43.439-0.6l183.597-183.597l6.12,6.12l-66.071,66.071c-17.503,36.866-6.671,60.257,14.076,78.947 C1148.162,752.16,1321.943,578.379,1321.943,578.379z"/> </g> </svg>